<svg xmlns="http://www.w3.org/2000/svg" viewBox="0 0 390 844" preserveAspectRatio="xMidYMid slice">
  <defs>
    <linearGradient id="g" x1="0" x2="0" y1="0" y2="1">
      <stop offset="0" stop-color="#153246"/>
      <stop offset=".48" stop-color="#071622"/>
      <stop offset="1" stop-color="#030912"/>
    </linearGradient>
    <filter id="blur"><feGaussianBlur stdDeviation="3"/></filter>
  </defs>
  <rect width="390" height="844" fill="url(#g)"/>
  <path d="M0 92h390v2H0zM0 610h390v2H0z" fill="#6ebbd0" opacity=".08"/>
  <g opacity=".18" filter="url(#blur)">
    <rect x="20" y="112" width="52" height="220" rx="16" fill="#0dd17e"/>
    <rect x="312" y="110" width="50" height="224" rx="16" fill="#0dd17e"/>
    <rect x="80" y="56" width="28" height="128" rx="12" fill="#63d6ff"/>
    <rect x="270" y="66" width="26" height="146" rx="12" fill="#63d6ff"/>
  </g>
  <g opacity=".2" stroke="#a7d7e6" stroke-width="5" fill="none">
    <path d="M142 96h106l-28 170h-50z"/>
    <path d="M95 370h200M66 420h258M42 720h306"/>
  </g>
  <g opacity=".08" fill="#fff">
    <rect x="104" y="376" width="182" height="12"/>
    <rect x="82" y="424" width="226" height="10"/>
    <rect x="46" y="724" width="298" height="14"/>
  </g>
</svg>
